<svg width="20" height="21" viewBox="0 0 20 21" fill="none" xmlns="http://www.w3.org/2000/svg">
<path d="M5.8335 6.55395V6.55395C5.8335 4.72937 5.8335 3.81707 6.34553 3.24697C6.45665 3.12324 6.58277 3.01386 6.72096 2.92136C7.35775 2.49509 8.26088 2.62411 10.0671 2.88215L12.3487 3.20809C14.8048 3.55896 16.0329 3.7344 16.7665 4.58029C17.5002 5.42618 17.5002 6.66672 17.5002 9.14778V12.0736C17.5002 14.5546 17.5002 15.7952 16.7665 16.6411C16.0329 17.487 14.8048 17.6624 12.3487 18.0133L9.90386 18.3625C8.25228 18.5985 7.42649 18.7164 6.82477 18.365C6.61023 18.2397 6.42092 18.0755 6.26653 17.8808C5.8335 17.3348 5.8335 16.5007 5.8335 14.8323V14.8323" stroke="#8E8EA1"/>
<path d="M13.3335 10.61L13.7239 10.2977L13.9738 10.61L13.7239 10.9224L13.3335 10.61ZM3.3335 11.11C3.05735 11.11 2.8335 10.8862 2.8335 10.61C2.8335 10.3339 3.05735 10.11 3.3335 10.11V11.11ZM10.3906 6.13101L13.7239 10.2977L12.9431 10.9224L9.60973 6.75571L10.3906 6.13101ZM13.7239 10.9224L10.3906 15.089L9.60973 14.4643L12.9431 10.2977L13.7239 10.9224ZM13.3335 11.11H3.3335V10.11H13.3335V11.11Z" fill="#8E8EA1"/>
</svg>
